<mxfile host="app.diagrams.net" modified="2021-12-29T04:25:34.315Z" agent="5.0 (Windows NT 10.0; Win64; x64) AppleWebKit/537.36 (KHTML, like Gecko) Chrome/96.0.4664.110 Safari/537.36" etag="Cpx5wdC8bK2HYFPyBtKf" version="16.1.0" type="github">
  <diagram id="YKyKrxaOJm8cSqs0rw-M" name="Page-1">
    <mxGraphModel dx="2062" dy="1132" grid="1" gridSize="10" guides="1" tooltips="1" connect="1" arrows="1" fold="1" page="1" pageScale="1" pageWidth="827" pageHeight="1169" math="0" shadow="0">
      <root>
        <mxCell id="0" />
        <mxCell id="1" parent="0" />
        <mxCell id="tBHKLctIXgyot9-Yo7T3-29" style="edgeStyle=orthogonalEdgeStyle;rounded=0;orthogonalLoop=1;jettySize=auto;html=1;" parent="1" source="tBHKLctIXgyot9-Yo7T3-6" target="tBHKLctIXgyot9-Yo7T3-15" edge="1">
          <mxGeometry relative="1" as="geometry" />
        </mxCell>
        <mxCell id="tBHKLctIXgyot9-Yo7T3-6" value="" style="shape=cube;whiteSpace=wrap;html=1;boundedLbl=1;backgroundOutline=1;darkOpacity=0.05;darkOpacity2=0.1;" parent="1" vertex="1">
          <mxGeometry x="414.25" y="850" width="216.5" height="160" as="geometry" />
        </mxCell>
        <mxCell id="91grLDrV8FItByj2K50K-4" value="" style="html=1;points=[];perimeter=orthogonalPerimeter;strokeColor=#99FF33;fillColor=#4D9900;" parent="1" vertex="1">
          <mxGeometry x="100" y="110" width="10" height="300" as="geometry" />
        </mxCell>
        <mxCell id="91grLDrV8FItByj2K50K-23" value="" style="html=1;points=[];perimeter=orthogonalPerimeter;strokeColor=#99FF33;fillColor=#4D9900;" parent="1" vertex="1">
          <mxGeometry x="100" y="110" width="10" height="560" as="geometry" />
        </mxCell>
        <mxCell id="91grLDrV8FItByj2K50K-33" value="" style="shape=actor;whiteSpace=wrap;html=1;strokeColor=#99FF33;fillColor=#4D9900;" parent="1" vertex="1">
          <mxGeometry x="87.5" y="10" width="35" height="47" as="geometry" />
        </mxCell>
        <mxCell id="91grLDrV8FItByj2K50K-48" value="" style="html=1;points=[];perimeter=orthogonalPerimeter;dashed=1;strokeColor=#7EA6E0;fillColor=#4D9900;" parent="1" vertex="1">
          <mxGeometry x="260" y="150" width="10" height="510" as="geometry" />
        </mxCell>
        <mxCell id="91grLDrV8FItByj2K50K-49" value="&lt;font color=&quot;#4d9900&quot;&gt;进入组件控制台&lt;/font&gt;" style="html=1;verticalAlign=bottom;endArrow=block;entryX=0;entryY=0;strokeColor=#4D9900;" parent="1" source="91grLDrV8FItByj2K50K-23" target="91grLDrV8FItByj2K50K-48" edge="1">
          <mxGeometry x="-0.0667" relative="1" as="geometry">
            <mxPoint x="110" y="260" as="sourcePoint" />
            <Array as="points">
              <mxPoint x="190" y="150" />
            </Array>
            <mxPoint as="offset" />
          </mxGeometry>
        </mxCell>
        <mxCell id="91grLDrV8FItByj2K50K-50" value="完成绑定" style="html=1;verticalAlign=bottom;endArrow=open;dashed=1;endSize=8;exitX=0;exitY=0.95;strokeColor=#4D9900;fontColor=#4D9900;" parent="1" source="91grLDrV8FItByj2K50K-48" target="91grLDrV8FItByj2K50K-23" edge="1">
          <mxGeometry relative="1" as="geometry">
            <mxPoint x="110" y="336" as="targetPoint" />
          </mxGeometry>
        </mxCell>
        <mxCell id="tBHKLctIXgyot9-Yo7T3-201" value="" style="edgeStyle=orthogonalEdgeStyle;rounded=0;orthogonalLoop=1;jettySize=auto;html=1;" parent="1" source="91grLDrV8FItByj2K50K-54" target="91grLDrV8FItByj2K50K-48" edge="1">
          <mxGeometry relative="1" as="geometry" />
        </mxCell>
        <mxCell id="91grLDrV8FItByj2K50K-54" value="组件" style="shape=umlLifeline;perimeter=lifelinePerimeter;whiteSpace=wrap;html=1;container=1;collapsible=0;recursiveResize=0;outlineConnect=0;dashed=1;strokeColor=#7EA6E0;fillColor=#7EA6E0;gradientColor=#ffffff;" parent="1" vertex="1">
          <mxGeometry x="215" y="61" width="100" height="89" as="geometry" />
        </mxCell>
        <mxCell id="91grLDrV8FItByj2K50K-63" value="" style="html=1;points=[];perimeter=orthogonalPerimeter;dashed=1;fontSize=9;fontColor=#4D9900;strokeColor=#7EA6E0;fillColor=#4D9900;gradientDirection=west;" parent="1" vertex="1">
          <mxGeometry x="440" y="171" width="10" height="469" as="geometry" />
        </mxCell>
        <mxCell id="91grLDrV8FItByj2K50K-64" value="进入弹性IP绑定界面" style="html=1;verticalAlign=bottom;endArrow=block;entryX=0;entryY=0;labelBackgroundColor=none;fontSize=9;fontColor=#4D9900;strokeColor=#4D9900;" parent="1" target="91grLDrV8FItByj2K50K-63" edge="1">
          <mxGeometry relative="1" as="geometry">
            <mxPoint x="270" y="171" as="sourcePoint" />
          </mxGeometry>
        </mxCell>
        <mxCell id="91grLDrV8FItByj2K50K-65" value="返回" style="html=1;verticalAlign=bottom;endArrow=open;dashed=1;endSize=8;exitX=0;exitY=0.95;labelBackgroundColor=none;fontSize=9;fontColor=#4D9900;strokeColor=#4D9900;" parent="1" source="91grLDrV8FItByj2K50K-63" target="91grLDrV8FItByj2K50K-48" edge="1">
          <mxGeometry relative="1" as="geometry">
            <mxPoint x="270" y="247" as="targetPoint" />
          </mxGeometry>
        </mxCell>
        <mxCell id="91grLDrV8FItByj2K50K-66" value="PaaS平台" style="shape=umlLifeline;perimeter=lifelinePerimeter;whiteSpace=wrap;html=1;container=1;collapsible=0;recursiveResize=0;outlineConnect=0;dashed=1;strokeColor=#7EA6E0;fillColor=#7EA6E0;gradientColor=#ffffff;" parent="1" vertex="1">
          <mxGeometry x="395" y="61" width="100" height="109" as="geometry" />
        </mxCell>
        <mxCell id="91grLDrV8FItByj2K50K-74" value="PaaS平台" style="shape=umlLifeline;perimeter=lifelinePerimeter;whiteSpace=wrap;html=1;container=1;collapsible=0;recursiveResize=0;outlineConnect=0;dashed=1;fillColor=#7EA6E0;gradientColor=#ffffff;strokeColor=none;strokeWidth=3;" parent="91grLDrV8FItByj2K50K-66" vertex="1">
          <mxGeometry width="100" height="110" as="geometry" />
        </mxCell>
        <mxCell id="91grLDrV8FItByj2K50K-67" value="" style="html=1;points=[];perimeter=orthogonalPerimeter;dashed=1;fontSize=9;fontColor=#4D9900;strokeColor=#7EA6E0;fillColor=#4D9900;" parent="1" vertex="1">
          <mxGeometry x="590" y="190" width="10" height="260" as="geometry" />
        </mxCell>
        <mxCell id="91grLDrV8FItByj2K50K-68" value="调用绑定接口" style="html=1;verticalAlign=bottom;endArrow=block;entryX=0;entryY=0;labelBackgroundColor=none;fontSize=9;fontColor=#4D9900;strokeColor=#4D9900;" parent="1" target="91grLDrV8FItByj2K50K-67" edge="1">
          <mxGeometry relative="1" as="geometry">
            <mxPoint x="450" y="190" as="sourcePoint" />
          </mxGeometry>
        </mxCell>
        <mxCell id="91grLDrV8FItByj2K50K-69" value="通知PaaS绑定结束" style="html=1;verticalAlign=bottom;endArrow=open;endSize=8;labelBackgroundColor=none;fontSize=9;fontColor=#4D9900;strokeColor=#4D9900;exitX=-0.3;exitY=0.85;exitDx=0;exitDy=0;exitPerimeter=0;" parent="1" source="ZwiiK09C_VbupCyEyqyy-21" target="91grLDrV8FItByj2K50K-63" edge="1">
          <mxGeometry x="-0.0219" y="-4" relative="1" as="geometry">
            <mxPoint x="450" y="266" as="targetPoint" />
            <mxPoint x="874.75" y="425.028" as="sourcePoint" />
            <mxPoint as="offset" />
          </mxGeometry>
        </mxCell>
        <mxCell id="91grLDrV8FItByj2K50K-70" value="云管平台" style="shape=umlLifeline;perimeter=lifelinePerimeter;whiteSpace=wrap;html=1;container=1;collapsible=0;recursiveResize=0;outlineConnect=0;dashed=1;strokeColor=#7EA6E0;fillColor=#7EA6E0;gradientColor=#ffffff;" parent="1" vertex="1">
          <mxGeometry x="542.25" y="61" width="105.5" height="129" as="geometry" />
        </mxCell>
        <mxCell id="91grLDrV8FItByj2K50K-80" value="用户" style="shape=umlLifeline;perimeter=lifelinePerimeter;whiteSpace=wrap;html=1;container=1;collapsible=0;recursiveResize=0;outlineConnect=0;dashed=1;strokeColor=#7EA6E0;fillColor=#7EA6E0;gradientColor=#ffffff;" parent="1" vertex="1">
          <mxGeometry x="55" y="61" width="100" height="49" as="geometry" />
        </mxCell>
        <mxCell id="91grLDrV8FItByj2K50K-92" value="" style="html=1;points=[];perimeter=orthogonalPerimeter;dashed=1;fontSize=9;fontColor=#4D9900;strokeColor=#7EA6E0;fillColor=#4D9900;" parent="1" vertex="1">
          <mxGeometry x="750" y="200" width="10" height="170" as="geometry" />
        </mxCell>
        <mxCell id="91grLDrV8FItByj2K50K-93" value="" style="html=1;verticalAlign=bottom;endArrow=block;entryX=0;entryY=0;labelBackgroundColor=none;fontSize=9;fontColor=#4D9900;strokeColor=#4D9900;" parent="1" target="91grLDrV8FItByj2K50K-92" edge="1">
          <mxGeometry relative="1" as="geometry">
            <mxPoint x="600" y="200" as="sourcePoint" />
          </mxGeometry>
        </mxCell>
        <mxCell id="ZwiiK09C_VbupCyEyqyy-1" value="调用适配接口" style="edgeLabel;html=1;align=center;verticalAlign=middle;resizable=0;points=[];fontSize=9;fontColor=#4D9900;" parent="91grLDrV8FItByj2K50K-93" vertex="1" connectable="0">
          <mxGeometry x="0.3833" y="2" relative="1" as="geometry">
            <mxPoint x="-23" y="2" as="offset" />
          </mxGeometry>
        </mxCell>
        <mxCell id="91grLDrV8FItByj2K50K-94" value="通知云管，绑定结束" style="html=1;verticalAlign=bottom;endArrow=open;endSize=8;exitX=0;exitY=0.95;labelBackgroundColor=none;fontSize=9;fontColor=#4D9900;strokeColor=#4D9900;" parent="1" source="91grLDrV8FItByj2K50K-92" target="91grLDrV8FItByj2K50K-67" edge="1">
          <mxGeometry x="-0.0415" relative="1" as="geometry">
            <mxPoint x="600" y="276" as="targetPoint" />
            <mxPoint as="offset" />
          </mxGeometry>
        </mxCell>
        <mxCell id="91grLDrV8FItByj2K50K-102" value="IaaS集群" style="shape=umlLifeline;perimeter=lifelinePerimeter;whiteSpace=wrap;html=1;container=1;collapsible=0;recursiveResize=0;outlineConnect=0;dashed=1;strokeColor=#7EA6E0;fillColor=#7EA6E0;gradientColor=#ffffff;" parent="1" vertex="1">
          <mxGeometry x="840" y="61" width="158" height="419" as="geometry" />
        </mxCell>
        <mxCell id="ZwiiK09C_VbupCyEyqyy-16" value="" style="html=1;points=[];perimeter=orthogonalPerimeter;fontSize=9;fontColor=#4D9900;strokeColor=#7EA6E0;strokeWidth=3;fillColor=#4D9900;gradientColor=none;" parent="91grLDrV8FItByj2K50K-102" vertex="1">
          <mxGeometry x="47.75" y="179" width="10" height="80" as="geometry" />
        </mxCell>
        <mxCell id="91grLDrV8FItByj2K50K-109" value="发送绑定结果通知" style="html=1;verticalAlign=bottom;endArrow=block;entryX=0;entryY=0;labelBackgroundColor=none;fontSize=9;fontColor=#4D9900;strokeColor=#4D9900;" parent="1" source="91grLDrV8FItByj2K50K-63" target="91grLDrV8FItByj2K50K-108" edge="1">
          <mxGeometry relative="1" as="geometry">
            <mxPoint x="449" y="420" as="sourcePoint" />
          </mxGeometry>
        </mxCell>
        <mxCell id="91grLDrV8FItByj2K50K-110" value="返回" style="html=1;verticalAlign=bottom;endArrow=open;dashed=1;endSize=8;exitX=0;exitY=0.95;labelBackgroundColor=none;fontSize=9;fontColor=#4D9900;strokeColor=#4D9900;" parent="1" source="91grLDrV8FItByj2K50K-108" target="91grLDrV8FItByj2K50K-63" edge="1">
          <mxGeometry relative="1" as="geometry">
            <mxPoint x="450" y="336" as="targetPoint" />
          </mxGeometry>
        </mxCell>
        <mxCell id="91grLDrV8FItByj2K50K-117" value="组件" style="shape=umlLifeline;perimeter=lifelinePerimeter;whiteSpace=wrap;html=1;container=1;collapsible=0;recursiveResize=0;outlineConnect=0;strokeColor=#7EA6E0;fillColor=#7EA6E0;gradientColor=#ffffff;perimeterSpacing=3;" parent="1" vertex="1">
          <mxGeometry x="990" y="61" width="100" height="509" as="geometry" />
        </mxCell>
        <mxCell id="ZwiiK09C_VbupCyEyqyy-7" value="IaasAdapter服务" style="shape=umlLifeline;perimeter=lifelinePerimeter;whiteSpace=wrap;html=1;container=1;collapsible=0;recursiveResize=0;outlineConnect=0;dashed=1;strokeColor=#7EA6E0;fillColor=#7EA6E0;gradientColor=#ffffff;" parent="1" vertex="1">
          <mxGeometry x="702.25" y="61" width="105.5" height="139" as="geometry" />
        </mxCell>
        <mxCell id="ZwiiK09C_VbupCyEyqyy-8" value="" style="html=1;points=[];perimeter=orthogonalPerimeter;dashed=1;fontSize=9;fontColor=#4D9900;strokeColor=#7EA6E0;fillColor=#4D9900;" parent="ZwiiK09C_VbupCyEyqyy-7" vertex="1">
          <mxGeometry x="47.75" y="259" width="10" height="71" as="geometry" />
        </mxCell>
        <mxCell id="ZwiiK09C_VbupCyEyqyy-17" value="资源池对应集群接口" style="html=1;verticalAlign=bottom;endArrow=block;labelBackgroundColor=none;fontSize=9;fontColor=#4D9900;strokeColor=#4D9900;entryX=-0.175;entryY=0.098;entryDx=0;entryDy=0;entryPerimeter=0;" parent="1" target="ZwiiK09C_VbupCyEyqyy-16" edge="1">
          <mxGeometry x="0.1639" y="7" relative="1" as="geometry">
            <mxPoint x="751.8103448275863" y="246" as="sourcePoint" />
            <mxPoint x="880" y="246" as="targetPoint" />
            <mxPoint as="offset" />
          </mxGeometry>
        </mxCell>
        <mxCell id="ZwiiK09C_VbupCyEyqyy-18" value="返回" style="html=1;verticalAlign=bottom;endArrow=open;dashed=1;endSize=8;exitX=0;exitY=0.95;labelBackgroundColor=none;fontSize=9;fontColor=#4D9900;strokeColor=#4D9900;" parent="1" source="ZwiiK09C_VbupCyEyqyy-16" edge="1">
          <mxGeometry relative="1" as="geometry">
            <mxPoint x="760" y="316" as="targetPoint" />
          </mxGeometry>
        </mxCell>
        <mxCell id="91grLDrV8FItByj2K50K-108" value="" style="html=1;points=[];perimeter=orthogonalPerimeter;dashed=1;fontSize=9;fontColor=#4D9900;strokeColor=#7EA6E0;fillColor=#4D9900;" parent="1" vertex="1">
          <mxGeometry x="1035" y="570" width="10" height="60" as="geometry" />
        </mxCell>
        <mxCell id="ZwiiK09C_VbupCyEyqyy-21" value="" style="html=1;points=[];perimeter=orthogonalPerimeter;fontSize=9;fontColor=#4D9900;strokeColor=#7EA6E0;strokeWidth=3;fillColor=#4D9900;gradientColor=none;" parent="1" vertex="1">
          <mxGeometry x="590" y="430" width="10" height="40" as="geometry" />
        </mxCell>
        <mxCell id="ZwiiK09C_VbupCyEyqyy-22" value="记录弹性IP&lt;br&gt;绑定状态" style="edgeStyle=orthogonalEdgeStyle;html=1;align=left;spacingLeft=2;endArrow=block;rounded=0;labelBackgroundColor=none;fontSize=9;fontColor=#4D9900;strokeColor=#4D9900;" parent="1" edge="1">
          <mxGeometry y="10" relative="1" as="geometry">
            <mxPoint x="594" y="390" as="sourcePoint" />
            <Array as="points">
              <mxPoint x="650" y="390" />
              <mxPoint x="650" y="430" />
            </Array>
            <mxPoint x="600" y="430" as="targetPoint" />
            <mxPoint as="offset" />
          </mxGeometry>
        </mxCell>
        <mxCell id="tBHKLctIXgyot9-Yo7T3-18" style="edgeStyle=orthogonalEdgeStyle;rounded=0;orthogonalLoop=1;jettySize=auto;html=1;exitX=1;exitY=0.5;exitDx=0;exitDy=0;entryX=0;entryY=0.5;entryDx=0;entryDy=0;" parent="1" source="tBHKLctIXgyot9-Yo7T3-1" target="tBHKLctIXgyot9-Yo7T3-2" edge="1">
          <mxGeometry relative="1" as="geometry" />
        </mxCell>
        <mxCell id="tBHKLctIXgyot9-Yo7T3-1" value="Public IP" style="rounded=0;whiteSpace=wrap;html=1;" parent="1" vertex="1">
          <mxGeometry x="155" y="920" width="65" height="40" as="geometry" />
        </mxCell>
        <mxCell id="tBHKLctIXgyot9-Yo7T3-20" style="edgeStyle=orthogonalEdgeStyle;rounded=0;orthogonalLoop=1;jettySize=auto;html=1;exitX=1;exitY=0.5;exitDx=0;exitDy=0;entryX=0;entryY=0.5;entryDx=0;entryDy=0;" parent="1" source="tBHKLctIXgyot9-Yo7T3-2" target="tBHKLctIXgyot9-Yo7T3-3" edge="1">
          <mxGeometry relative="1" as="geometry" />
        </mxCell>
        <mxCell id="tBHKLctIXgyot9-Yo7T3-2" value="NAT设备 SNAT和DNAT功能，IP报文中公网IP替换为VIP" style="rounded=0;whiteSpace=wrap;html=1;" parent="1" vertex="1">
          <mxGeometry x="270" y="910" width="120" height="60" as="geometry" />
        </mxCell>
        <mxCell id="tBHKLctIXgyot9-Yo7T3-21" value="" style="edgeStyle=orthogonalEdgeStyle;rounded=0;orthogonalLoop=1;jettySize=auto;html=1;" parent="1" source="tBHKLctIXgyot9-Yo7T3-3" target="tBHKLctIXgyot9-Yo7T3-5" edge="1">
          <mxGeometry relative="1" as="geometry" />
        </mxCell>
        <mxCell id="tBHKLctIXgyot9-Yo7T3-3" value="VIP" style="rounded=0;whiteSpace=wrap;html=1;" parent="1" vertex="1">
          <mxGeometry x="445" y="920" width="50" height="40" as="geometry" />
        </mxCell>
        <mxCell id="tBHKLctIXgyot9-Yo7T3-4" value="Nginx" style="rounded=0;whiteSpace=wrap;html=1;" parent="1" vertex="1">
          <mxGeometry x="541.5" y="890" width="78.5" height="40" as="geometry" />
        </mxCell>
        <mxCell id="tBHKLctIXgyot9-Yo7T3-5" value="Nginx" style="rounded=0;whiteSpace=wrap;html=1;" parent="1" vertex="1">
          <mxGeometry x="540" y="950" width="80" height="40" as="geometry" />
        </mxCell>
        <mxCell id="tBHKLctIXgyot9-Yo7T3-12" value="KeepAlived&amp;nbsp; + 双Nginx&amp;nbsp;" style="text;html=1;strokeColor=none;fillColor=none;align=center;verticalAlign=middle;whiteSpace=wrap;rounded=0;" parent="1" vertex="1">
          <mxGeometry x="445" y="855" width="155" height="10" as="geometry" />
        </mxCell>
        <mxCell id="tBHKLctIXgyot9-Yo7T3-14" value="负载均衡 + 高可用" style="text;html=1;strokeColor=none;fillColor=none;align=center;verticalAlign=middle;whiteSpace=wrap;rounded=0;" parent="1" vertex="1">
          <mxGeometry x="472.25" y="830" width="100" height="10" as="geometry" />
        </mxCell>
        <mxCell id="tBHKLctIXgyot9-Yo7T3-31" style="edgeStyle=orthogonalEdgeStyle;rounded=0;orthogonalLoop=1;jettySize=auto;html=1;exitX=1;exitY=0.5;exitDx=0;exitDy=0;" parent="1" source="tBHKLctIXgyot9-Yo7T3-15" target="tBHKLctIXgyot9-Yo7T3-16" edge="1">
          <mxGeometry relative="1" as="geometry" />
        </mxCell>
        <mxCell id="tBHKLctIXgyot9-Yo7T3-15" value="Nginx&lt;br&gt;前端工程服务器&lt;br&gt;静态资源 + 前后端分离的路由转发" style="rounded=0;whiteSpace=wrap;html=1;" parent="1" vertex="1">
          <mxGeometry x="680" y="892.5" width="100" height="75" as="geometry" />
        </mxCell>
        <mxCell id="tBHKLctIXgyot9-Yo7T3-32" style="edgeStyle=orthogonalEdgeStyle;rounded=0;orthogonalLoop=1;jettySize=auto;html=1;exitX=1;exitY=0.5;exitDx=0;exitDy=0;" parent="1" source="tBHKLctIXgyot9-Yo7T3-16" target="tBHKLctIXgyot9-Yo7T3-17" edge="1">
          <mxGeometry relative="1" as="geometry" />
        </mxCell>
        <mxCell id="tBHKLctIXgyot9-Yo7T3-16" value="Zuul&lt;br&gt;后端网关&lt;br&gt;服务端口：8714" style="rounded=0;whiteSpace=wrap;html=1;" parent="1" vertex="1">
          <mxGeometry x="825.5" y="907.5" width="94.5" height="45" as="geometry" />
        </mxCell>
        <mxCell id="tBHKLctIXgyot9-Yo7T3-17" value="后端服务集群" style="shape=cube;whiteSpace=wrap;html=1;boundedLbl=1;backgroundOutline=1;darkOpacity=0.05;darkOpacity2=0.1;" parent="1" vertex="1">
          <mxGeometry x="960" y="890" width="120" height="80" as="geometry" />
        </mxCell>
        <mxCell id="tBHKLctIXgyot9-Yo7T3-26" value="用户" style="shape=umlActor;verticalLabelPosition=bottom;verticalAlign=top;html=1;outlineConnect=0;" parent="1" vertex="1">
          <mxGeometry x="155" y="780" width="30" height="60" as="geometry" />
        </mxCell>
        <mxCell id="tBHKLctIXgyot9-Yo7T3-35" value="http://183.146.30.7:8080/cloud/#/login" style="text;html=1;strokeColor=none;fillColor=none;align=center;verticalAlign=middle;whiteSpace=wrap;rounded=0;" parent="1" vertex="1">
          <mxGeometry x="140" y="880" width="40" height="20" as="geometry" />
        </mxCell>
        <mxCell id="tBHKLctIXgyot9-Yo7T3-39" value="监听端口：8080&lt;br&gt;转发到Zuul端口：8714" style="rounded=1;whiteSpace=wrap;html=1;" parent="1" vertex="1">
          <mxGeometry x="660" y="837.5" width="130" height="45" as="geometry" />
        </mxCell>
        <mxCell id="tBHKLctIXgyot9-Yo7T3-40" value="根据端口后的Url转发到对应的服务" style="rounded=1;whiteSpace=wrap;html=1;" parent="1" vertex="1">
          <mxGeometry x="813.25" y="838.75" width="132.25" height="41.25" as="geometry" />
        </mxCell>
        <mxCell id="tBHKLctIXgyot9-Yo7T3-43" value="Web浏览器和程序后端服务请求的差异？&lt;br&gt;web浏览器请求的是前端项目的监听端口？&lt;br&gt;后台服务如何调用？&lt;br&gt;防火墙的端口限制?" style="ellipse;whiteSpace=wrap;html=1;" parent="1" vertex="1">
          <mxGeometry x="72.5" y="980" width="230" height="100" as="geometry" />
        </mxCell>
        <mxCell id="yy9VEolmiOXdHBrrqAr6-3" style="edgeStyle=orthogonalEdgeStyle;rounded=0;orthogonalLoop=1;jettySize=auto;html=1;exitX=0.5;exitY=1;exitDx=0;exitDy=0;" parent="1" source="yy9VEolmiOXdHBrrqAr6-1" target="yy9VEolmiOXdHBrrqAr6-2" edge="1">
          <mxGeometry relative="1" as="geometry" />
        </mxCell>
        <mxCell id="yy9VEolmiOXdHBrrqAr6-1" value="Executor" style="html=1;" parent="1" vertex="1">
          <mxGeometry x="380" y="1090" width="110" height="50" as="geometry" />
        </mxCell>
        <mxCell id="yy9VEolmiOXdHBrrqAr6-6" style="edgeStyle=orthogonalEdgeStyle;rounded=0;orthogonalLoop=1;jettySize=auto;html=1;exitX=0.5;exitY=1;exitDx=0;exitDy=0;entryX=0.5;entryY=0;entryDx=0;entryDy=0;" parent="1" source="yy9VEolmiOXdHBrrqAr6-2" target="yy9VEolmiOXdHBrrqAr6-4" edge="1">
          <mxGeometry relative="1" as="geometry" />
        </mxCell>
        <mxCell id="yy9VEolmiOXdHBrrqAr6-2" value="ExecutorService" style="html=1;" parent="1" vertex="1">
          <mxGeometry x="380" y="1180" width="110" height="50" as="geometry" />
        </mxCell>
        <mxCell id="yy9VEolmiOXdHBrrqAr6-4" value="AbstractExecutorServcie" style="html=1;" parent="1" vertex="1">
          <mxGeometry x="360" y="1270" width="150" height="60" as="geometry" />
        </mxCell>
        <mxCell id="yy9VEolmiOXdHBrrqAr6-10" value="ThreadPoolExecutor" style="swimlane;fontStyle=1;align=center;verticalAlign=top;childLayout=stackLayout;horizontal=1;startSize=26;horizontalStack=0;resizeParent=1;resizeParentMax=0;resizeLast=0;collapsible=1;marginBottom=0;" parent="1" vertex="1">
          <mxGeometry x="350" y="1380" width="190" height="188" as="geometry" />
        </mxCell>
        <mxCell id="yy9VEolmiOXdHBrrqAr6-11" value="+ Queue: BlockingLinkedQueue&#xa;+ KeepalivedTime: Long&#xa;+ AbortPolicy:&#xa;+ maxThread&#xa;+ idleThread:&#xa;+&#xa;" style="text;strokeColor=none;fillColor=none;align=left;verticalAlign=top;spacingLeft=4;spacingRight=4;overflow=hidden;rotatable=0;points=[[0,0.5],[1,0.5]];portConstraint=eastwest;" parent="yy9VEolmiOXdHBrrqAr6-10" vertex="1">
          <mxGeometry y="26" width="190" height="104" as="geometry" />
        </mxCell>
        <mxCell id="yy9VEolmiOXdHBrrqAr6-12" value="" style="line;strokeWidth=1;fillColor=none;align=left;verticalAlign=middle;spacingTop=-1;spacingLeft=3;spacingRight=3;rotatable=0;labelPosition=right;points=[];portConstraint=eastwest;" parent="yy9VEolmiOXdHBrrqAr6-10" vertex="1">
          <mxGeometry y="130" width="190" height="8" as="geometry" />
        </mxCell>
        <mxCell id="yy9VEolmiOXdHBrrqAr6-13" value="+ method(type): type" style="text;strokeColor=none;fillColor=none;align=left;verticalAlign=top;spacingLeft=4;spacingRight=4;overflow=hidden;rotatable=0;points=[[0,0.5],[1,0.5]];portConstraint=eastwest;" parent="yy9VEolmiOXdHBrrqAr6-10" vertex="1">
          <mxGeometry y="138" width="190" height="50" as="geometry" />
        </mxCell>
        <mxCell id="yy9VEolmiOXdHBrrqAr6-14" value="Executors&lt;br&gt;" style="html=1;" parent="1" vertex="1">
          <mxGeometry x="540" y="1180" width="110" height="50" as="geometry" />
        </mxCell>
        <mxCell id="yy9VEolmiOXdHBrrqAr6-18" style="edgeStyle=orthogonalEdgeStyle;rounded=0;orthogonalLoop=1;jettySize=auto;html=1;exitX=0.5;exitY=1;exitDx=0;exitDy=0;entryX=0.5;entryY=0;entryDx=0;entryDy=0;" parent="1" source="yy9VEolmiOXdHBrrqAr6-15" target="yy9VEolmiOXdHBrrqAr6-17" edge="1">
          <mxGeometry relative="1" as="geometry" />
        </mxCell>
        <mxCell id="yy9VEolmiOXdHBrrqAr6-15" value="Runnable" style="html=1;" parent="1" vertex="1">
          <mxGeometry x="880" y="1080" width="110" height="50" as="geometry" />
        </mxCell>
        <mxCell id="yy9VEolmiOXdHBrrqAr6-19" style="edgeStyle=orthogonalEdgeStyle;rounded=0;orthogonalLoop=1;jettySize=auto;html=1;entryX=0.5;entryY=0;entryDx=0;entryDy=0;" parent="1" source="yy9VEolmiOXdHBrrqAr6-16" target="yy9VEolmiOXdHBrrqAr6-17" edge="1">
          <mxGeometry relative="1" as="geometry" />
        </mxCell>
        <mxCell id="yy9VEolmiOXdHBrrqAr6-24" style="edgeStyle=orthogonalEdgeStyle;rounded=0;orthogonalLoop=1;jettySize=auto;html=1;exitX=0.5;exitY=1;exitDx=0;exitDy=0;entryX=0.5;entryY=0;entryDx=0;entryDy=0;" parent="1" source="yy9VEolmiOXdHBrrqAr6-16" edge="1">
          <mxGeometry relative="1" as="geometry">
            <mxPoint x="1241.0000000000005" y="1180" as="targetPoint" />
          </mxGeometry>
        </mxCell>
        <mxCell id="yy9VEolmiOXdHBrrqAr6-16" value="Future&amp;lt;T&amp;gt;" style="html=1;" parent="1" vertex="1">
          <mxGeometry x="1060" y="1080" width="110" height="50" as="geometry" />
        </mxCell>
        <mxCell id="yy9VEolmiOXdHBrrqAr6-33" style="edgeStyle=orthogonalEdgeStyle;rounded=0;orthogonalLoop=1;jettySize=auto;html=1;exitX=0.5;exitY=1;exitDx=0;exitDy=0;" parent="1" source="yy9VEolmiOXdHBrrqAr6-17" target="yy9VEolmiOXdHBrrqAr6-29" edge="1">
          <mxGeometry relative="1" as="geometry" />
        </mxCell>
        <mxCell id="yy9VEolmiOXdHBrrqAr6-17" value="RunnableFutrue&amp;lt;T&amp;gt;" style="html=1;" parent="1" vertex="1">
          <mxGeometry x="965" y="1180" width="110" height="50" as="geometry" />
        </mxCell>
        <mxCell id="yy9VEolmiOXdHBrrqAr6-23" style="edgeStyle=orthogonalEdgeStyle;rounded=0;orthogonalLoop=1;jettySize=auto;html=1;" parent="1" source="yy9VEolmiOXdHBrrqAr6-21" edge="1">
          <mxGeometry relative="1" as="geometry">
            <mxPoint x="1241.0000000000005" y="1180" as="targetPoint" />
          </mxGeometry>
        </mxCell>
        <mxCell id="yy9VEolmiOXdHBrrqAr6-21" value="CompletionStage&amp;lt;T&amp;gt;" style="html=1;" parent="1" vertex="1">
          <mxGeometry x="1250" y="1080" width="110" height="50" as="geometry" />
        </mxCell>
        <mxCell id="yy9VEolmiOXdHBrrqAr6-25" value="CompletableFuture&lt;V， T&gt;" style="swimlane;fontStyle=1;align=center;verticalAlign=top;childLayout=stackLayout;horizontal=1;startSize=26;horizontalStack=0;resizeParent=1;resizeParentMax=0;resizeLast=0;collapsible=1;marginBottom=0;" parent="1" vertex="1">
          <mxGeometry x="1170" y="1180" width="170" height="280" as="geometry" />
        </mxCell>
        <mxCell id="yy9VEolmiOXdHBrrqAr6-26" value="+ field: type" style="text;strokeColor=none;fillColor=none;align=left;verticalAlign=top;spacingLeft=4;spacingRight=4;overflow=hidden;rotatable=0;points=[[0,0.5],[1,0.5]];portConstraint=eastwest;" parent="yy9VEolmiOXdHBrrqAr6-25" vertex="1">
          <mxGeometry y="26" width="170" height="26" as="geometry" />
        </mxCell>
        <mxCell id="yy9VEolmiOXdHBrrqAr6-27" value="" style="line;strokeWidth=1;fillColor=none;align=left;verticalAlign=middle;spacingTop=-1;spacingLeft=3;spacingRight=3;rotatable=0;labelPosition=right;points=[];portConstraint=eastwest;" parent="yy9VEolmiOXdHBrrqAr6-25" vertex="1">
          <mxGeometry y="52" width="170" height="8" as="geometry" />
        </mxCell>
        <mxCell id="yy9VEolmiOXdHBrrqAr6-28" value="+ " style="text;strokeColor=none;fillColor=none;align=left;verticalAlign=top;spacingLeft=4;spacingRight=4;overflow=hidden;rotatable=0;points=[[0,0.5],[1,0.5]];portConstraint=eastwest;" parent="yy9VEolmiOXdHBrrqAr6-25" vertex="1">
          <mxGeometry y="60" width="170" height="220" as="geometry" />
        </mxCell>
        <mxCell id="yy9VEolmiOXdHBrrqAr6-29" value="FutureTask&lt;V&gt;" style="swimlane;fontStyle=1;align=center;verticalAlign=top;childLayout=stackLayout;horizontal=1;startSize=26;horizontalStack=0;resizeParent=1;resizeParentMax=0;resizeLast=0;collapsible=1;marginBottom=0;" parent="1" vertex="1">
          <mxGeometry x="935" y="1290" width="170" height="170" as="geometry" />
        </mxCell>
        <mxCell id="yy9VEolmiOXdHBrrqAr6-30" value="+ field: type" style="text;strokeColor=none;fillColor=none;align=left;verticalAlign=top;spacingLeft=4;spacingRight=4;overflow=hidden;rotatable=0;points=[[0,0.5],[1,0.5]];portConstraint=eastwest;" parent="yy9VEolmiOXdHBrrqAr6-29" vertex="1">
          <mxGeometry y="26" width="170" height="26" as="geometry" />
        </mxCell>
        <mxCell id="yy9VEolmiOXdHBrrqAr6-31" value="" style="line;strokeWidth=1;fillColor=none;align=left;verticalAlign=middle;spacingTop=-1;spacingLeft=3;spacingRight=3;rotatable=0;labelPosition=right;points=[];portConstraint=eastwest;" parent="yy9VEolmiOXdHBrrqAr6-29" vertex="1">
          <mxGeometry y="52" width="170" height="8" as="geometry" />
        </mxCell>
        <mxCell id="yy9VEolmiOXdHBrrqAr6-32" value="+ run()&#xa;+ get()&#xa;+ cancel()&#xa;" style="text;strokeColor=none;fillColor=none;align=left;verticalAlign=top;spacingLeft=4;spacingRight=4;overflow=hidden;rotatable=0;points=[[0,0.5],[1,0.5]];portConstraint=eastwest;" parent="yy9VEolmiOXdHBrrqAr6-29" vertex="1">
          <mxGeometry y="60" width="170" height="110" as="geometry" />
        </mxCell>
        <mxCell id="KicvQ8EtTO4RB6WsqThv-13" value="N" style="edgeStyle=orthogonalEdgeStyle;rounded=0;orthogonalLoop=1;jettySize=auto;html=1;exitX=0.5;exitY=1;exitDx=0;exitDy=0;entryX=0.5;entryY=0;entryDx=0;entryDy=0;" parent="1" source="KicvQ8EtTO4RB6WsqThv-2" target="KicvQ8EtTO4RB6WsqThv-5" edge="1">
          <mxGeometry relative="1" as="geometry" />
        </mxCell>
        <mxCell id="KicvQ8EtTO4RB6WsqThv-15" value="Y" style="edgeStyle=orthogonalEdgeStyle;rounded=0;orthogonalLoop=1;jettySize=auto;html=1;entryX=0.5;entryY=0;entryDx=0;entryDy=0;" parent="1" source="KicvQ8EtTO4RB6WsqThv-2" target="KicvQ8EtTO4RB6WsqThv-3" edge="1">
          <mxGeometry relative="1" as="geometry" />
        </mxCell>
        <mxCell id="KicvQ8EtTO4RB6WsqThv-2" value="查询vpcId下是否有可用的IP?&lt;br&gt;返回IP list类型数据" style="rhombus;whiteSpace=wrap;html=1;" parent="1" vertex="1">
          <mxGeometry x="250" y="1840" width="110" height="100" as="geometry" />
        </mxCell>
        <mxCell id="KicvQ8EtTO4RB6WsqThv-10" style="edgeStyle=orthogonalEdgeStyle;rounded=0;orthogonalLoop=1;jettySize=auto;html=1;exitX=0.5;exitY=1;exitDx=0;exitDy=0;" parent="1" source="KicvQ8EtTO4RB6WsqThv-3" target="KicvQ8EtTO4RB6WsqThv-9" edge="1">
          <mxGeometry relative="1" as="geometry" />
        </mxCell>
        <mxCell id="KicvQ8EtTO4RB6WsqThv-3" value="随机出对应的Address，Id，接口可提供，默认为数组第一个数据" style="rounded=0;whiteSpace=wrap;html=1;" parent="1" vertex="1">
          <mxGeometry x="440" y="1940" width="120" height="60" as="geometry" />
        </mxCell>
        <mxCell id="KicvQ8EtTO4RB6WsqThv-8" style="edgeStyle=orthogonalEdgeStyle;rounded=0;orthogonalLoop=1;jettySize=auto;html=1;exitX=0.5;exitY=1;exitDx=0;exitDy=0;entryX=0.5;entryY=0;entryDx=0;entryDy=0;" parent="1" source="KicvQ8EtTO4RB6WsqThv-5" target="KicvQ8EtTO4RB6WsqThv-7" edge="1">
          <mxGeometry relative="1" as="geometry" />
        </mxCell>
        <mxCell id="KicvQ8EtTO4RB6WsqThv-5" value="查询对应的VPC详情" style="rounded=0;whiteSpace=wrap;html=1;" parent="1" vertex="1">
          <mxGeometry x="245" y="2000" width="120" height="60" as="geometry" />
        </mxCell>
        <mxCell id="KicvQ8EtTO4RB6WsqThv-12" value="反向流程" style="edgeStyle=orthogonalEdgeStyle;rounded=0;orthogonalLoop=1;jettySize=auto;html=1;entryX=0;entryY=0.5;entryDx=0;entryDy=0;" parent="1" source="KicvQ8EtTO4RB6WsqThv-7" target="KicvQ8EtTO4RB6WsqThv-2" edge="1">
          <mxGeometry relative="1" as="geometry">
            <Array as="points">
              <mxPoint x="150" y="2135" />
              <mxPoint x="150" y="1890" />
            </Array>
          </mxGeometry>
        </mxCell>
        <mxCell id="KicvQ8EtTO4RB6WsqThv-7" value="根据结果获取的Subnet数据，更新到网络资源池，同步返回结果" style="rounded=0;whiteSpace=wrap;html=1;" parent="1" vertex="1">
          <mxGeometry x="230" y="2110" width="150" height="50" as="geometry" />
        </mxCell>
        <mxCell id="KicvQ8EtTO4RB6WsqThv-9" value="结束" style="shape=parallelogram;perimeter=parallelogramPerimeter;whiteSpace=wrap;html=1;fixedSize=1;" parent="1" vertex="1">
          <mxGeometry x="440" y="2060" width="120" height="60" as="geometry" />
        </mxCell>
        <mxCell id="dexDQ5NJyNWIRSyvoCWC-11" style="edgeStyle=orthogonalEdgeStyle;rounded=0;orthogonalLoop=1;jettySize=auto;html=1;exitX=0.5;exitY=1;exitDx=0;exitDy=0;entryX=0.5;entryY=0;entryDx=0;entryDy=0;" parent="1" source="dexDQ5NJyNWIRSyvoCWC-2" target="dexDQ5NJyNWIRSyvoCWC-4" edge="1">
          <mxGeometry relative="1" as="geometry" />
        </mxCell>
        <mxCell id="dexDQ5NJyNWIRSyvoCWC-2" value="云管导入外网信息" style="rounded=1;whiteSpace=wrap;html=1;" parent="1" vertex="1">
          <mxGeometry x="901" y="1690" width="120" height="40" as="geometry" />
        </mxCell>
        <mxCell id="dexDQ5NJyNWIRSyvoCWC-12" value="N" style="edgeStyle=orthogonalEdgeStyle;rounded=0;orthogonalLoop=1;jettySize=auto;html=1;exitX=0;exitY=0.5;exitDx=0;exitDy=0;entryX=0.5;entryY=0;entryDx=0;entryDy=0;" parent="1" source="dexDQ5NJyNWIRSyvoCWC-4" target="dexDQ5NJyNWIRSyvoCWC-8" edge="1">
          <mxGeometry relative="1" as="geometry" />
        </mxCell>
        <mxCell id="dexDQ5NJyNWIRSyvoCWC-33" value="Y" style="edgeStyle=orthogonalEdgeStyle;rounded=0;orthogonalLoop=1;jettySize=auto;html=1;entryX=0.5;entryY=0;entryDx=0;entryDy=0;" parent="1" source="dexDQ5NJyNWIRSyvoCWC-4" target="dexDQ5NJyNWIRSyvoCWC-10" edge="1">
          <mxGeometry relative="1" as="geometry" />
        </mxCell>
        <mxCell id="dexDQ5NJyNWIRSyvoCWC-4" value="是否具有弹性IP?" style="rhombus;whiteSpace=wrap;html=1;" parent="1" vertex="1">
          <mxGeometry x="889" y="1770" width="144" height="80" as="geometry" />
        </mxCell>
        <mxCell id="dexDQ5NJyNWIRSyvoCWC-5" style="edgeStyle=orthogonalEdgeStyle;rounded=0;orthogonalLoop=1;jettySize=auto;html=1;exitX=0.5;exitY=1;exitDx=0;exitDy=0;" parent="1" source="dexDQ5NJyNWIRSyvoCWC-4" target="dexDQ5NJyNWIRSyvoCWC-4" edge="1">
          <mxGeometry relative="1" as="geometry" />
        </mxCell>
        <mxCell id="dexDQ5NJyNWIRSyvoCWC-23" value="Y" style="edgeStyle=orthogonalEdgeStyle;rounded=0;orthogonalLoop=1;jettySize=auto;html=1;exitX=0.5;exitY=1;exitDx=0;exitDy=0;" parent="1" source="dexDQ5NJyNWIRSyvoCWC-7" target="dexDQ5NJyNWIRSyvoCWC-22" edge="1">
          <mxGeometry relative="1" as="geometry" />
        </mxCell>
        <mxCell id="dexDQ5NJyNWIRSyvoCWC-26" value="N" style="edgeStyle=orthogonalEdgeStyle;rounded=0;orthogonalLoop=1;jettySize=auto;html=1;exitX=1;exitY=0.5;exitDx=0;exitDy=0;entryX=0;entryY=0.5;entryDx=0;entryDy=0;" parent="1" source="dexDQ5NJyNWIRSyvoCWC-7" target="dexDQ5NJyNWIRSyvoCWC-24" edge="1">
          <mxGeometry relative="1" as="geometry" />
        </mxCell>
        <mxCell id="dexDQ5NJyNWIRSyvoCWC-7" value="比对导入数据与云桌面接口返回数据CIDR值?" style="rhombus;whiteSpace=wrap;html=1;" parent="1" vertex="1">
          <mxGeometry x="891" y="1950" width="144" height="80" as="geometry" />
        </mxCell>
        <mxCell id="dexDQ5NJyNWIRSyvoCWC-27" style="edgeStyle=orthogonalEdgeStyle;rounded=0;orthogonalLoop=1;jettySize=auto;html=1;exitX=0.5;exitY=1;exitDx=0;exitDy=0;entryX=0.5;entryY=0;entryDx=0;entryDy=0;" parent="1" source="dexDQ5NJyNWIRSyvoCWC-8" target="dexDQ5NJyNWIRSyvoCWC-7" edge="1">
          <mxGeometry relative="1" as="geometry" />
        </mxCell>
        <mxCell id="dexDQ5NJyNWIRSyvoCWC-8" value="基础网络" style="rounded=1;whiteSpace=wrap;html=1;" parent="1" vertex="1">
          <mxGeometry x="750" y="1860" width="120" height="30" as="geometry" />
        </mxCell>
        <mxCell id="dexDQ5NJyNWIRSyvoCWC-28" style="edgeStyle=orthogonalEdgeStyle;rounded=0;orthogonalLoop=1;jettySize=auto;html=1;exitX=0.5;exitY=1;exitDx=0;exitDy=0;entryX=0.5;entryY=0;entryDx=0;entryDy=0;" parent="1" edge="1">
          <mxGeometry relative="1" as="geometry">
            <mxPoint x="1130" y="1883" as="sourcePoint" />
            <mxPoint x="963" y="1953" as="targetPoint" />
            <Array as="points">
              <mxPoint x="1130" y="1920" />
              <mxPoint x="963" y="1920" />
            </Array>
          </mxGeometry>
        </mxCell>
        <mxCell id="dexDQ5NJyNWIRSyvoCWC-10" value="外网" style="rounded=1;whiteSpace=wrap;html=1;" parent="1" vertex="1">
          <mxGeometry x="1070" y="1860" width="120" height="30" as="geometry" />
        </mxCell>
        <mxCell id="dexDQ5NJyNWIRSyvoCWC-22" value="导入成功，后续可通过编辑功能修改" style="rounded=1;whiteSpace=wrap;html=1;" parent="1" vertex="1">
          <mxGeometry x="903.5" y="2070" width="119" height="40" as="geometry" />
        </mxCell>
        <mxCell id="dexDQ5NJyNWIRSyvoCWC-24" value="导入失败，界面提示失败原因" style="rounded=1;whiteSpace=wrap;html=1;" parent="1" vertex="1">
          <mxGeometry x="1090" y="1970" width="100" height="40" as="geometry" />
        </mxCell>
        <mxCell id="i96eKVEhpFbZin9OX3LN-1" value="申请网卡中" style="ellipse;whiteSpace=wrap;html=1;" parent="1" vertex="1">
          <mxGeometry x="220" y="2258" width="120" height="80" as="geometry" />
        </mxCell>
        <mxCell id="i96eKVEhpFbZin9OX3LN-2" value="已完成" style="ellipse;whiteSpace=wrap;html=1;" parent="1" vertex="1">
          <mxGeometry x="390" y="2360" width="120" height="80" as="geometry" />
        </mxCell>
        <mxCell id="i96eKVEhpFbZin9OX3LN-3" value="绑定安全组中" style="ellipse;whiteSpace=wrap;html=1;" parent="1" vertex="1">
          <mxGeometry x="582.25" y="2330" width="120" height="80" as="geometry" />
        </mxCell>
        <mxCell id="i96eKVEhpFbZin9OX3LN-4" value="解绑安全组中&lt;span style=&quot;color: rgba(0 , 0 , 0 , 0) ; font-family: monospace ; font-size: 0px&quot;&gt;%3CmxGraphModel%3E%3Croot%3E%3CmxCell%20id%3D%220%22%2F%3E%3CmxCell%20id%3D%221%22%20parent%3D%220%22%2F%3E%3CmxCell%20id%3D%222%22%20value%3D%22%E7%BB%91%E5%AE%9A%E5%AE%89%E5%85%A8%E7%BB%84%E4%B8%AD%22%20style%3D%22ellipse%3BwhiteSpace%3Dwrap%3Bhtml%3D1%3B%22%20vertex%3D%221%22%20parent%3D%221%22%3E%3CmxGeometry%20x%3D%22370%22%20y%3D%222440%22%20width%3D%22120%22%20height%3D%2280%22%20as%3D%22geometry%22%2F%3E%3C%2FmxCell%3E%3C%2Froot%3E%3C%2FmxGraphModel%3E&lt;/span&gt;" style="ellipse;whiteSpace=wrap;html=1;" parent="1" vertex="1">
          <mxGeometry x="582.25" y="2200" width="120" height="80" as="geometry" />
        </mxCell>
        <mxCell id="i96eKVEhpFbZin9OX3LN-5" value="绑定弹性IP中" style="ellipse;whiteSpace=wrap;html=1;" parent="1" vertex="1">
          <mxGeometry x="320" y="2910" width="120" height="80" as="geometry" />
        </mxCell>
        <mxCell id="i96eKVEhpFbZin9OX3LN-6" value="解绑弹性IP" style="ellipse;whiteSpace=wrap;html=1;" parent="1" vertex="1">
          <mxGeometry x="582.25" y="2470" width="120" height="80" as="geometry" />
        </mxCell>
        <mxCell id="i96eKVEhpFbZin9OX3LN-7" value="状态复位" style="ellipse;whiteSpace=wrap;html=1;" parent="1" vertex="1">
          <mxGeometry x="771" y="2370" width="120" height="80" as="geometry" />
        </mxCell>
        <mxCell id="i96eKVEhpFbZin9OX3LN-8" value="删除网卡中" style="ellipse;whiteSpace=wrap;html=1;" parent="1" vertex="1">
          <mxGeometry x="215" y="2440" width="120" height="80" as="geometry" />
        </mxCell>
        <mxCell id="i96eKVEhpFbZin9OX3LN-13" value="" style="sketch=0;points=[[0.015,0.015,0],[0.985,0.015,0],[0.985,0.985,0],[0.015,0.985,0],[0.25,0,0],[0.5,0,0],[0.75,0,0],[1,0.25,0],[1,0.5,0],[1,0.75,0],[0.75,1,0],[0.5,1,0],[0.25,1,0],[0,0.75,0],[0,0.5,0],[0,0.25,0]];verticalLabelPosition=bottom;html=1;verticalAlign=top;aspect=fixed;align=center;pointerEvents=1;shape=mxgraph.cisco19.rect;prIcon=flow_analytics2;fillColor=#FAFAFA;strokeColor=#005073;" parent="1" vertex="1">
          <mxGeometry x="800" y="2270" width="50" height="50" as="geometry" />
        </mxCell>
        <mxCell id="i96eKVEhpFbZin9OX3LN-14" value="" style="sketch=0;points=[[0.015,0.015,0],[0.985,0.015,0],[0.985,0.985,0],[0.015,0.985,0],[0.25,0,0],[0.5,0,0],[0.75,0,0],[1,0.25,0],[1,0.5,0],[1,0.75,0],[0.75,1,0],[0.5,1,0],[0.25,1,0],[0,0.75,0],[0,0.5,0],[0,0.25,0]];verticalLabelPosition=bottom;html=1;verticalAlign=top;aspect=fixed;align=center;pointerEvents=1;shape=mxgraph.cisco19.rect;prIcon=flow_analytics;fillColor=#FAFAFA;strokeColor=#005073;" parent="1" vertex="1">
          <mxGeometry x="790" y="2270" width="64" height="50" as="geometry" />
        </mxCell>
        <mxCell id="i96eKVEhpFbZin9OX3LN-15" value="" style="sketch=0;points=[[0.015,0.015,0],[0.985,0.015,0],[0.985,0.985,0],[0.015,0.985,0],[0.25,0,0],[0.5,0,0],[0.75,0,0],[1,0.25,0],[1,0.5,0],[1,0.75,0],[0.75,1,0],[0.5,1,0],[0.25,1,0],[0,0.75,0],[0,0.5,0],[0,0.25,0]];verticalLabelPosition=bottom;html=1;verticalAlign=top;aspect=fixed;align=center;pointerEvents=1;shape=mxgraph.cisco19.rect;prIcon=flow_analytics;fillColor=#FAFAFA;strokeColor=#005073;" parent="1" vertex="1">
          <mxGeometry x="790" y="2270" width="64" height="50" as="geometry" />
        </mxCell>
        <mxCell id="i96eKVEhpFbZin9OX3LN-16" value="" style="sketch=0;points=[[0.015,0.015,0],[0.985,0.015,0],[0.985,0.985,0],[0.015,0.985,0],[0.25,0,0],[0.5,0,0],[0.75,0,0],[1,0.25,0],[1,0.5,0],[1,0.75,0],[0.75,1,0],[0.5,1,0],[0.25,1,0],[0,0.75,0],[0,0.5,0],[0,0.25,0]];verticalLabelPosition=bottom;html=1;verticalAlign=top;aspect=fixed;align=center;pointerEvents=1;shape=mxgraph.cisco19.rect;prIcon=flow_analytics;fillColor=#FAFAFA;strokeColor=#005073;" parent="1" vertex="1">
          <mxGeometry x="790" y="2270" width="64" height="50" as="geometry" />
        </mxCell>
        <mxCell id="i96eKVEhpFbZin9OX3LN-17" value="" style="endArrow=blockThin;html=1;labelPosition=left;verticalLabelPosition=middle;align=right;verticalAlign=middle;dashed=1;dashPattern=8 4;endFill=0;startArrow=oval;startFill=0;endSize=6;startSize=4;rounded=0;" parent="1" edge="1">
          <mxGeometry relative="1" as="geometry">
            <mxPoint x="750" y="2290" as="sourcePoint" />
            <mxPoint x="910" y="2290" as="targetPoint" />
          </mxGeometry>
        </mxCell>
        <mxCell id="i96eKVEhpFbZin9OX3LN-18" value="" style="shape=message;html=1;outlineConnect=0;labelPosition=left;verticalLabelPosition=middle;align=right;verticalAlign=middle;spacingRight=5;labelBackgroundColor=#ffffff;fillColor=#C0C0C0;" parent="i96eKVEhpFbZin9OX3LN-17" vertex="1">
          <mxGeometry width="24" height="16" relative="1" as="geometry">
            <mxPoint x="8" y="-8" as="offset" />
          </mxGeometry>
        </mxCell>
        <mxCell id="NSNvOvhrXasMIvLlhE0n-1" value="绑定弹性IP中" style="ellipse;whiteSpace=wrap;html=1;" vertex="1" parent="1">
          <mxGeometry x="330" y="2920" width="120" height="80" as="geometry" />
        </mxCell>
        <mxCell id="NSNvOvhrXasMIvLlhE0n-2" value="绑定弹性IP中" style="ellipse;whiteSpace=wrap;html=1;" vertex="1" parent="1">
          <mxGeometry x="340" y="2930" width="120" height="80" as="geometry" />
        </mxCell>
        <mxCell id="NSNvOvhrXasMIvLlhE0n-3" value="绑定弹性IP中" style="ellipse;whiteSpace=wrap;html=1;" vertex="1" parent="1">
          <mxGeometry x="350" y="2940" width="120" height="80" as="geometry" />
        </mxCell>
        <mxCell id="NSNvOvhrXasMIvLlhE0n-4" value="绑定弹性IP中" style="ellipse;whiteSpace=wrap;html=1;" vertex="1" parent="1">
          <mxGeometry x="530" y="2990" width="120" height="80" as="geometry" />
        </mxCell>
      </root>
    </mxGraphModel>
  </diagram>
</mxfile>
